<svg width="38" height="38" viewBox="0 0 38 38" fill="none" xmlns="http://www.w3.org/2000/svg">
<path d="M5.56497 32.4351C-1.85499 25.0151 -1.85499 12.985 5.56497 5.56503C12.9849 -1.85493 25.0151 -1.85493 32.435 5.56503C39.855 12.985 39.855 25.0151 32.435 32.4351C25.0151 39.855 12.9849 39.855 5.56497 32.4351ZM15.8173 25.1285C15.8754 25.1982 15.9474 25.2553 16.0286 25.2957C16.1099 25.336 16.199 25.3592 16.2897 25.3633C16.3802 25.3674 16.4709 25.3526 16.5555 25.3198C16.6402 25.287 16.7178 25.2363 16.782 25.1721C16.8461 25.1079 16.8963 25.0308 16.9291 24.9462C16.9619 24.8616 16.9767 24.771 16.9726 24.6804C16.9685 24.5897 16.9453 24.5007 16.9049 24.4194C16.8646 24.3381 16.8075 24.2662 16.7378 24.2081L12.0387 19.5035L27.5716 19.5035C27.7392 19.4945 27.8974 19.4215 28.0128 19.2998C28.1283 19.1779 28.1924 19.016 28.1924 18.8481C28.1923 18.6803 28.1276 18.519 28.0122 18.3972C27.8966 18.2755 27.7385 18.2024 27.5709 18.1935L12.0394 18.1935L16.7454 13.4944C16.8639 13.3704 16.9298 13.2054 16.9298 13.0338C16.9297 12.8624 16.8638 12.6973 16.7454 12.5733C16.6851 12.5128 16.6136 12.4645 16.5348 12.4317C16.4558 12.3989 16.3704 12.382 16.2848 12.382C16.1994 12.382 16.1145 12.3996 16.0355 12.4324C15.9567 12.4652 15.8845 12.5128 15.8242 12.5733L10.0037 18.3938C9.94177 18.4534 9.89238 18.5259 9.85871 18.6051C9.82516 18.6841 9.80761 18.7692 9.80761 18.855C9.80763 18.9409 9.8251 19.026 9.85871 19.105C9.89234 19.1841 9.94187 19.2554 10.0037 19.3149L15.8173 25.1285Z" fill="#EF9F00"/>
</svg>
