<svg width="32" height="23" viewBox="0 0 32 23" fill="none" xmlns="http://www.w3.org/2000/svg">
<path d="M21.5401 0.416562C21.4388 0.292948 21.3133 0.19217 21.1717 0.120653C21.03 0.0491348 20.8753 0.00844624 20.7173 0.00118096C20.5593 -0.00608432 20.4016 0.0202331 20.2542 0.0784554C20.1068 0.136678 19.9729 0.225528 19.8611 0.33934C19.7493 0.453153 19.662 0.589432 19.6048 0.739488C19.5476 0.889544 19.5217 1.05008 19.5288 1.21088C19.536 1.37167 19.576 1.52918 19.6462 1.67338C19.7165 1.81757 19.8155 1.94528 19.9369 2.04836L28.1161 10.3836L1.08095 10.3836C0.789107 10.3994 0.514318 10.5285 0.313211 10.7443C0.112104 10.9602 0 11.2463 0 11.5438C0 11.8413 0.112104 12.1275 0.313211 12.3433C0.514318 12.5592 0.789107 12.6883 1.08095 12.704L28.1161 12.704L19.9241 21.0295C19.7179 21.2493 19.6029 21.5415 19.6029 21.8454C19.6029 22.1493 19.7179 22.4415 19.9241 22.6613C20.0292 22.7687 20.1542 22.8538 20.2917 22.912C20.4293 22.9701 20.5767 23 20.7257 23C20.8746 23 21.0221 22.9701 21.1596 22.912C21.2972 22.8538 21.4221 22.7687 21.5272 22.6613L31.659 12.3483C31.7668 12.2426 31.8526 12.1159 31.9112 11.9757C31.9698 11.8355 32 11.6848 32 11.5324C32 11.38 31.9698 11.2293 31.9112 11.0891C31.8526 10.9489 31.7668 10.8222 31.659 10.7165L21.5401 0.416562Z" fill="#223E4F"/>
</svg>
