<svg width="72" height="58" viewBox="0 0 72 58" fill="none" xmlns="http://www.w3.org/2000/svg">
<path d="M36.8797 0C38.8025 0.0106581 43.6134 0.057496 48.725 0.263661L50.5373 0.343234C55.6837 0.588588 60.8258 1.00773 63.3762 1.72378C66.778 2.6861 69.4518 5.494 70.3554 9.0533C71.7944 14.7053 71.9744 25.7368 71.9968 28.4064L72 28.9596V28.9984C72 28.9984 72 29.0118 72 29.0375L71.9968 29.5907C71.9744 32.2603 71.7944 43.2918 70.3554 48.9439C69.4392 52.5162 66.7654 55.3242 63.3762 56.2733C60.8258 56.9893 55.6837 57.4084 50.5373 57.6538L48.725 57.7332C43.6134 57.9395 38.8025 57.9862 36.8797 57.9971L36.0358 58H35.9984C35.9984 58 35.9858 58 35.9609 58L35.1178 57.9971C31.0482 57.9746 14.0324 57.7894 8.62062 56.2733C5.21879 55.3108 2.54503 52.5031 1.64121 48.9439C0.202329 43.2918 0.022465 32.2603 0 29.5907V28.4064C0.022465 25.7368 0.202329 14.7053 1.64121 9.0533C2.55755 5.4808 5.23132 2.67294 8.62062 1.72378C14.0324 0.207471 31.0482 0.0225488 35.1178 0H36.8797ZM28.7981 16.3103V41.6866L50.399 28.9984L28.7981 16.3103Z" fill="#FBFAFA"/>
</svg>
