<svg width="32" height="23" viewBox="0 0 32 23" fill="none" xmlns="http://www.w3.org/2000/svg">
<path d="M10.4599 0.416562C10.5612 0.292948 10.6867 0.19217 10.8283 0.120653C10.97 0.0491348 11.1247 0.00844624 11.2827 0.00118096C11.4407 -0.00608432 11.5984 0.0202331 11.7458 0.0784554C11.8932 0.136678 12.0271 0.225528 12.1389 0.33934C12.2507 0.453153 12.338 0.589432 12.3952 0.739488C12.4524 0.889544 12.4783 1.05008 12.4712 1.21088C12.464 1.37167 12.424 1.52918 12.3538 1.67338C12.2835 1.81757 12.1845 1.94528 12.0631 2.04836L3.88392 10.3836L30.919 10.3836C31.2109 10.3994 31.4857 10.5285 31.6868 10.7443C31.8879 10.9602 32 11.2463 32 11.5438C32 11.8413 31.8879 12.1275 31.6868 12.3433C31.4857 12.5592 31.2109 12.6883 30.919 12.704L3.88392 12.704L12.0759 21.0295C12.2821 21.2493 12.3971 21.5415 12.3971 21.8454C12.3971 22.1493 12.2821 22.4415 12.0759 22.6613C11.9708 22.7687 11.8458 22.8538 11.7083 22.912C11.5707 22.9701 11.4233 23 11.2743 23C11.1254 23 10.9779 22.9701 10.8404 22.912C10.7028 22.8538 10.5779 22.7687 10.4728 22.6613L0.341007 12.3483C0.233171 12.2426 0.147388 12.1159 0.0887938 11.9757C0.0301996 11.8355 4.73069e-08 11.6848 4.73069e-08 11.5324C4.73069e-08 11.38 0.0301996 11.2293 0.0887938 11.0891C0.147388 10.9489 0.233171 10.8222 0.341007 10.7165L10.4599 0.416562Z" fill="#223E4F"/>
</svg>
