<svg width="38" height="38" viewBox="0 0 38 38" fill="none" xmlns="http://www.w3.org/2000/svg">
<path d="M32.435 5.56491C39.855 12.9849 39.855 25.015 32.435 32.435C25.0151 39.8549 12.9849 39.8549 5.56497 32.435C-1.85499 25.015 -1.85499 12.9849 5.56497 5.56491C12.9849 -1.85505 25.0151 -1.85505 32.435 5.56491ZM22.1827 12.8715C22.1246 12.8018 22.0526 12.7447 21.9714 12.7043C21.8901 12.664 21.801 12.6408 21.7103 12.6367C21.6198 12.6326 21.5291 12.6474 21.4445 12.6802C21.3598 12.713 21.2822 12.7637 21.218 12.8279C21.1539 12.8921 21.1037 12.9692 21.0709 13.0538C21.0381 13.1384 21.0233 13.229 21.0274 13.3196C21.0315 13.4103 21.0547 13.4993 21.0951 13.5806C21.1354 13.6619 21.1925 13.7338 21.2622 13.7919L25.9613 18.4965H10.4284C10.2608 18.5055 10.1026 18.5785 9.98715 18.7002C9.87171 18.8221 9.80761 18.984 9.80761 19.1519C9.80769 19.3197 9.87237 19.481 9.98784 19.6028C10.1034 19.7245 10.2615 19.7976 10.4291 19.8065H25.9606L21.2546 24.5056C21.1361 24.6296 21.0702 24.7946 21.0702 24.9662C21.0703 25.1376 21.1362 25.3027 21.2546 25.4267C21.3149 25.4872 21.3864 25.5355 21.4652 25.5683C21.5442 25.6011 21.6296 25.618 21.7152 25.618C21.8006 25.618 21.8855 25.6004 21.9645 25.5676C22.0433 25.5348 22.1155 25.4872 22.1758 25.4267L27.9963 19.6062C28.0582 19.5466 28.1076 19.4741 28.1413 19.3949C28.1748 19.3159 28.1924 19.2308 28.1924 19.145C28.1924 19.0591 28.1749 18.974 28.1413 18.895C28.1077 18.8159 28.0581 18.7446 27.9963 18.6851L22.1827 12.8715Z" fill="#EF9F00"/>
</svg>
