<svg width="38" height="38" viewBox="0 0 38 38" fill="none" xmlns="http://www.w3.org/2000/svg">
<path d="M19 0C29.4934 0 38 8.50659 38 19C38 29.4934 29.4934 38 19 38C8.50659 38 0 29.4934 0 19C0 8.50659 8.50659 0 19 0ZM16.917 12.416C16.8266 12.4078 16.7354 12.4183 16.6494 12.4473C16.5634 12.4762 16.484 12.5228 16.417 12.584C16.35 12.6452 16.2964 12.7198 16.2598 12.8027C16.2231 12.8859 16.2041 12.9765 16.2041 13.0674C16.2042 13.1581 16.2232 13.2481 16.2598 13.3311C16.2964 13.414 16.35 13.4886 16.417 13.5498C16.484 13.611 16.5634 13.6575 16.6494 13.6865C16.7354 13.7155 16.8266 13.726 16.917 13.7178L23.5664 13.7217L12.583 24.7051C12.4708 24.8299 12.4106 24.9934 12.415 25.1611C12.4195 25.3289 12.4887 25.4887 12.6074 25.6074C12.7261 25.726 12.886 25.7944 13.0537 25.7988C13.2215 25.8032 13.385 25.7431 13.5098 25.6309L24.4922 14.6484L24.4873 21.2988C24.4913 21.4703 24.5613 21.6336 24.6826 21.7549C24.8039 21.8761 24.9672 21.9462 25.1387 21.9502C25.2241 21.9503 25.3088 21.934 25.3877 21.9014C25.4668 21.8687 25.5391 21.8203 25.5996 21.7598C25.66 21.6993 25.7076 21.6268 25.7402 21.5479C25.7728 21.4689 25.7902 21.3843 25.79 21.2988V13.0674C25.7917 12.9814 25.7753 12.8952 25.7432 12.8154C25.711 12.7358 25.6632 12.6632 25.6025 12.6025C25.5418 12.5418 25.4693 12.494 25.3896 12.4619C25.31 12.4298 25.2245 12.4144 25.1387 12.416H16.917Z" fill="#EF9F00"/>
</svg>
